<svg viewBox="0 0 100 100" xmlns="http://www.w3.org/2000/svg" role="img" aria-label="GreenSquare">
  <rect width="100" height="100" rx="22" fill="#133f26"/>
  <g transform="translate(24 24.5) scale(0.55)" fill="#DFF49F" fill-rule="evenodd">
    <g transform="translate(-1044 -419)">
      <path d="M44.1308 43.6143C34.8029 43.2723 25.5408 44.6503 18.2989 43.376 11.1686 42.1197 5.80913 37.6925 2.87166 32.4926-0.869475 25.8689 0.0877452 16.5769 3.23062 11.0858 6.41537 5.52097 12.5755 0.84355 19.8533 0.202412 31.1874-0.794692 38.2768 5.05133 41.9771 12.2813 45.9525 20.0468 43.6472 32.7918 44.1308 43.6143ZM37.4333 19.2182C36.0742 11.9264 29.9002 6.21395 21.0489 6.78031 13.8607 7.24097 8.51726 12.9643 7.29581 18.7396 5.57282 26.8919 10.2133 33.2435 15.7872 35.7213 21.7239 38.3606 28.9948 36.5199 37.4333 37.0364 37.0783 30.7776 38.4713 24.785 37.4333 19.2182Z" transform="matrix(1.01064 0 0 1 1044 419.182)"/>
      <path d="M93.7607 0.202412C93.0498 11.1207 95.9374 24.0472 91.249 32.4926 88.1051 38.1572 81.8603 43.0909 73.9084 43.734 66.3014 44.3492 58.3645 43.2723 50.3488 43.734 50.0646 38.9628 50.2291 34.0401 50.2291 29.3827 50.2291 24.3842 49.9898 19.7187 51.1863 15.8689 53.727 7.68668 60.3737 1.04995 70.3208 0.201415 77.825-0.435735 85.7968 0.683016 93.7607 0.202412ZM71.5173 6.78031C67.4401 7.04255 63.8885 8.72366 61.5911 10.9662 55.8428 16.5769 56.814 25.8579 56.9277 37.0364 66.5188 37.0903 76.9136 38.4673 82.64 33.2096 88.7343 27.6158 87.2047 16.8202 87.1848 6.89896 82.4854 7.00565 76.5307 6.46024 71.5173 6.78031Z" transform="matrix(1.01064 0 0 1 1044 419.182)"/>
      <path d="M44.0112 49.7146C43.6702 60.5272 45.5647 72.4685 42.337 80.0914 39.256 87.3673 32.8386 92.9082 23.5616 93.4855 15.9567 93.9591 8.20218 93.1315 0.241299 93.4855 0.394853 84.7758-0.369926 77.5069 0.241299 69.4483 0.967191 59.8781 7.9868 52.7039 16.3854 50.4335 23.769 48.4343 34.7321 50.4375 44.0112 49.7146ZM21.5275 56.4112C13.76 56.8609 8.5043 61.7836 7.0575 68.3694 5.8869 73.698 7.27288 80.4513 6.93785 86.9066 17.1661 86.6773 26.0713 88.2088 31.8126 83.5583 33.3641 82.302 34.7999 80.5919 35.7591 78.7752 38.8701 72.8843 37.0923 63.7249 37.3146 56.2915 32.3102 56.3823 26.527 56.121 21.5275 56.4112Z" transform="matrix(1.01064 0 0 1 1044 419.182)"/>
      <path d="M50.3498 49.7146C61.5423 50.3936 73.9652 47.9946 81.5631 51.8674 88.1719 55.2356 94.332 62.4935 93.641 73.0349 92.9351 83.8236 85.4678 91.4404 75.9415 93.1265 64.4728 95.1556 55.6085 88.7672 51.9043 80.4494 50.0496 76.2855 50.0058 70.8831 50.2301 65.1408 50.4256 60.1413 49.8492 54.1517 50.2301 50.0726 50.2192 49.9031 50.2102 49.7346 50.3498 49.7146ZM56.807 56.6505C57.0822 62.333 56.4331 67.6954 56.807 72.5563 57.3574 79.6985 61.9262 84.6372 67.4501 86.3093 75.056 88.6117 81.6997 85.043 84.7917 79.9717 89.2877 72.5952 86.3741 62.7617 80.2469 58.6836 74.1816 54.6463 66.1309 56.9885 57.166 56.2925 56.9935 56.3593 56.8748 56.478 56.807 56.6505Z" transform="matrix(1.01064 0 0 1 1044 419.182)"/>
    </g>
  </g>
</svg>
