<svg width="227" height="227" xmlns="http://www.w3.org/2000/svg" xmlns:xlink="http://www.w3.org/1999/xlink" xml:space="preserve" overflow="hidden"><g transform="translate(-223 -268)"><path d="M329.571 373.765C307.045 372.939 284.678 376.266 267.19 373.189 249.971 370.155 237.028 359.464 229.935 346.907 220.9 330.911 223.212 308.472 230.802 295.212 238.492 281.773 253.368 270.478 270.944 268.929 298.314 266.522 315.434 280.639 324.37 298.099 333.971 316.851 328.403 347.629 329.571 373.765ZM313.397 314.851C310.115 297.242 295.206 283.447 273.831 284.814 256.472 285.927 243.568 299.748 240.619 313.695 236.458 333.382 247.664 348.72 261.124 354.704 275.461 361.077 293.019 356.632 313.397 357.88 312.54 342.765 315.904 328.294 313.397 314.851Z" fill="#DFF49F" fill-rule="evenodd"/><path d="M449.422 268.929C447.705 295.296 454.679 326.512 443.357 346.907 435.764 360.586 420.684 372.5 401.481 374.054 383.111 375.539 363.944 372.939 344.587 374.054 343.901 362.532 344.298 350.644 344.298 339.397 344.298 327.326 343.72 316.059 346.61 306.762 352.745 287.003 368.796 270.976 392.817 268.927 410.939 267.388 430.19 270.09 449.422 268.929ZM395.707 284.814C385.861 285.448 377.284 289.507 371.736 294.923 357.854 308.472 360.2 330.885 360.474 357.88 383.636 358.01 408.738 361.335 422.567 348.638 437.284 335.13 433.59 309.06 433.542 285.101 422.194 285.359 407.814 284.041 395.707 284.814Z" fill="#DFF49F" fill-rule="evenodd"/><path d="M329.282 388.496C328.459 414.607 333.034 443.444 325.239 461.853 317.799 479.423 302.302 492.804 279.899 494.198 261.534 495.342 242.807 493.343 223.583 494.198 223.954 473.165 222.107 455.612 223.583 436.151 225.336 413.04 242.287 395.715 262.569 390.232 280.4 385.404 306.874 390.242 329.282 388.496ZM274.987 404.668C256.229 405.754 243.537 417.641 240.043 433.546 237.216 446.413 240.563 462.722 239.754 478.311 264.454 477.757 285.959 481.456 299.824 470.225 303.571 467.191 307.038 463.062 309.355 458.674 316.867 444.449 312.574 422.33 313.111 404.379 301.026 404.598 287.06 403.967 274.987 404.668Z" fill="#DFF49F" fill-rule="evenodd"/><path d="M344.589 388.496C371.618 390.136 401.618 384.343 419.966 393.695 435.926 401.829 450.802 419.356 449.133 444.812 447.428 470.866 429.396 489.26 406.391 493.331 378.695 498.231 357.289 482.804 348.343 462.717 343.865 452.662 343.759 439.616 344.3 425.749 344.772 413.676 343.381 399.211 344.3 389.361 344.274 388.951 344.252 388.544 344.589 388.496ZM360.183 405.246C360.847 418.968 359.28 431.918 360.183 443.656 361.512 460.904 372.545 472.83 385.885 476.869 404.252 482.428 420.296 473.81 427.763 461.564 438.62 443.75 431.584 420.004 416.788 410.155 402.141 400.406 382.699 406.062 361.05 404.381 360.633 404.542 360.347 404.829 360.183 405.246Z" fill="#DFF49F" fill-rule="evenodd"/></g></svg>